<mxfile agent="5.0 (Windows NT 10.0; Win64; x64) AppleWebKit/537.36 (KHTML, like Gecko) draw.io/15.7.3 Chrome/91.0.4472.164 Electron/13.6.1 Safari/537.36" compressed="false" etag="c0SBpAkmVrJb9kh7ET5w" host="Electron" modified="2021-11-11T22:44:08.283Z" version="15.7.3" type="device">
  <diagram id="6b6baae2-78ff-44fd-9ae9-2e007d259ed1" name="Page-1">
    <mxGraphModel dx="3424" dy="1513" grid="1" gridSize="10" guides="1" tooltips="1" connect="1" arrows="1" fold="1" page="1" pageScale="1" pageWidth="850" pageHeight="1100" math="0" shadow="0">
      <root>
        <mxCell id="0" />
        <mxCell id="1" parent="0" />
        <UserObject label="AWS" id="8c91b940_aed6_4b3e_a5d9_d2454f56bb91">
          <mxCell style="fillColor=#fefece;verticalAlign=top" parent="1" vertex="1">
            <mxGeometry x="-290" width="739" height="680" as="geometry" />
          </mxCell>
        </UserObject>
        <UserObject label="Shared Services Account" link="children/shared-services-account/index.html" id="dd9ac9db_973d_4c50_bf81_9d2d35f4179d">
          <mxCell style="fillColor=#fefece;verticalAlign=top" parent="8c91b940_aed6_4b3e_a5d9_d2454f56bb91" vertex="1">
            <mxGeometry x="452.5" y="99" width="166" height="171" as="geometry" />
          </mxCell>
        </UserObject>
        <UserObject label="Account Baseline" link="children/shared-services-account/children/account-baseline/index.html" id="b482c930_33fc_4a3c_85de_7849c63831e6">
          <mxCell style="fillColor=#fefece" parent="dd9ac9db_973d_4c50_bf81_9d2d35f4179d" vertex="1">
            <mxGeometry x="20" y="121" width="126" height="30" as="geometry" />
          </mxCell>
        </UserObject>
        <UserObject label="Amazon VPC" link="children/shared-services-account/children/vpc/index.html" id="8a548389_58a1_4a49_a206_d59755dccc01">
          <mxCell style="fillColor=#fefece" parent="dd9ac9db_973d_4c50_bf81_9d2d35f4179d" vertex="1">
            <mxGeometry x="48" y="20" width="84" height="30" as="geometry" />
          </mxCell>
        </UserObject>
        <UserObject label="Account Baseline Template" link="children/account-baseline-template/index.html" id="ca9f1cf7_de8e_44a7_90ae_79598c735e1d">
          <mxCell style="fillColor=#fefece" parent="8c91b940_aed6_4b3e_a5d9_d2454f56bb91" vertex="1">
            <mxGeometry x="441" y="300" width="189" height="30" as="geometry" />
          </mxCell>
        </UserObject>
        <UserObject label="Log Archive Account" link="children/log-archive-account/index.html" id="00e759f1_9770_4c8a_88c8_f006d0abfb57">
          <mxCell style="fillColor=#fefece;verticalAlign=top" parent="8c91b940_aed6_4b3e_a5d9_d2454f56bb91" vertex="1">
            <mxGeometry x="20" y="351" width="313" height="171" as="geometry" />
          </mxCell>
        </UserObject>
        <UserObject label="Account Baseline" link="children/log-archive-account/children/account-baseline/index.html" id="5e23d4ad_28ed_4e8f_9c63_639434519c87">
          <mxCell style="fillColor=#fefece" parent="00e759f1_9770_4c8a_88c8_f006d0abfb57" vertex="1">
            <mxGeometry x="100" y="20" width="126" height="30" as="geometry" />
          </mxCell>
        </UserObject>
        <UserObject label="Aggregate CloudTrail and\nConfig Logs" link="children/log-archive-account/children/logs/index.html" id="9d48db7d_be95_4297_8b0b_6afb1a0be86e">
          <mxCell style="fillColor=#fefece" parent="00e759f1_9770_4c8a_88c8_f006d0abfb57" vertex="1">
            <mxGeometry x="20" y="121" width="273" height="30" as="geometry" />
          </mxCell>
        </UserObject>
        <UserObject label="Security Account" link="children/security-account/index.html" id="6b2263d1_219d_4e64_9ecf_809a5c0b2649">
          <mxCell style="fillColor=#fefece;verticalAlign=top" parent="8c91b940_aed6_4b3e_a5d9_d2454f56bb91" vertex="1">
            <mxGeometry x="378.5" y="351" width="314" height="300" as="geometry" />
          </mxCell>
        </UserObject>
        <UserObject label="Amazon SNS" link="children/security-account/children/sns/index.html" id="df0dfcbe_0186_46ca_b77e_7562177baca5">
          <mxCell style="fillColor=#fefece" parent="6b2263d1_219d_4e64_9ecf_809a5c0b2649" vertex="1">
            <mxGeometry x="58" y="20" width="84" height="30" as="geometry" />
          </mxCell>
        </UserObject>
        <UserObject label="Amazon GuardDuty" link="children/security-account/children/guard-duty/index.html" id="3e23ece2_57ca_4d38_b6fd_78be1ebcd4ff">
          <mxCell style="fillColor=#fefece" parent="6b2263d1_219d_4e64_9ecf_809a5c0b2649" vertex="1">
            <mxGeometry x="168" y="138" width="126" height="30" as="geometry" />
          </mxCell>
        </UserObject>
        <UserObject label="Security Cross-Account Roles" link="children/security-account/children/roles/index.html" id="404c93fe_8c7f_46c7_84c9_f19cb3e87132">
          <mxCell style="fillColor=#fefece" parent="6b2263d1_219d_4e64_9ecf_809a5c0b2649" vertex="1">
            <mxGeometry x="20" y="250" width="210" height="30" as="geometry" />
          </mxCell>
        </UserObject>
        <UserObject label="Account Baseline" link="children/security-account/children/account-baseline/index.html" id="f0487117_9eb4_4070_a452_f858cec6639b">
          <mxCell style="fillColor=#fefece" parent="6b2263d1_219d_4e64_9ecf_809a5c0b2649" vertex="1">
            <mxGeometry x="30" y="121" width="126" height="30" as="geometry" />
          </mxCell>
        </UserObject>
        <UserObject label="AWS Cloud" link="children/cloud/index.html" id="9d8050f6_c1ce_43eb_8672_c7f0b13ef910">
          <mxCell style="fillColor=#fefece;verticalAlign=top" parent="8c91b940_aed6_4b3e_a5d9_d2454f56bb91" vertex="1">
            <mxGeometry x="20" y="20" width="386" height="250" as="geometry" />
          </mxCell>
        </UserObject>
        <UserObject label="Account Baseline" link="children/cloud/children/account-baseline/index.html" id="b9f73aee_bc0a_458a_aef0_e7a94b9842c9">
          <mxCell style="fillColor=#fefece" parent="9d8050f6_c1ce_43eb_8672_c7f0b13ef910" vertex="1">
            <mxGeometry x="240" y="110" width="126" height="30" as="geometry" />
          </mxCell>
        </UserObject>
        <UserObject label="AWS Single Sign-on" link="children/cloud/children/sso/index.html" id="7725909b_620f_4eeb_9f6a_53e930650d6c">
          <mxCell style="fillColor=#fefece" parent="9d8050f6_c1ce_43eb_8672_c7f0b13ef910" vertex="1">
            <mxGeometry x="20" y="200" width="140" height="30" as="geometry" />
          </mxCell>
        </UserObject>
        <UserObject label="AWS Service Catalog" link="children/cloud/children/service-catalog/index.html" id="f087db8d_4367_44e3_824a_7cbe98cf304c">
          <mxCell style="fillColor=#fefece" parent="9d8050f6_c1ce_43eb_8672_c7f0b13ef910" vertex="1">
            <mxGeometry x="160" y="180" width="147" height="30" as="geometry" />
          </mxCell>
        </UserObject>
        <UserObject label="Core OU" link="children/cloud/children/core-ou/index.html" id="f36c09c8_a943_4732_96b3_d8d8e338f65e">
          <mxCell style="fillColor=#fefece" parent="9d8050f6_c1ce_43eb_8672_c7f0b13ef910" vertex="1">
            <mxGeometry x="30" y="100" width="63" height="30" as="geometry" />
          </mxCell>
        </UserObject>
        <UserObject label="AWS Organizations" link="children/cloud/children/organizations/index.html" id="111acbdb_446c_4ff5_aaa6_0672e96f4eb4">
          <mxCell style="fillColor=#fefece" parent="9d8050f6_c1ce_43eb_8672_c7f0b13ef910" vertex="1">
            <mxGeometry x="60" y="130" width="133" height="30" as="geometry" />
          </mxCell>
        </UserObject>
        <UserObject label="AWS CodePipeline" link="children/cloud/children/code-pipeline/index.html" id="ffc6c272_14ea_4dc4_be63_74a2a4b4536e">
          <mxCell style="fillColor=#fefece" parent="9d8050f6_c1ce_43eb_8672_c7f0b13ef910" vertex="1">
            <mxGeometry x="150" y="90" width="126" height="30" as="geometry" />
          </mxCell>
        </UserObject>
        <UserObject label="AWS Parameter Store" link="children/cloud/children/parameter-store/index.html" id="1e468805_a5d4_4c59_a887_f6dc3acb2388">
          <mxCell style="fillColor=#fefece" parent="9d8050f6_c1ce_43eb_8672_c7f0b13ef910" vertex="1">
            <mxGeometry x="30" y="20" width="147" height="30" as="geometry" />
          </mxCell>
        </UserObject>
        <UserObject label="Amazon S3 Bucket" link="children/cloud/children/s3-bucket/index.html" id="6bb9761f_8ef6_4c15_8eab_5344bb2e0557">
          <mxCell style="fillColor=#fefece" parent="9d8050f6_c1ce_43eb_8672_c7f0b13ef910" vertex="1">
            <mxGeometry x="260" y="20" width="126" height="30" as="geometry" />
          </mxCell>
        </UserObject>
        <UserObject id="5">
          <mxCell style="strokeColor=#000000;noEdgeStyle=1;" parent="9d8050f6_c1ce_43eb_8672_c7f0b13ef910" source="111acbdb_446c_4ff5_aaa6_0672e96f4eb4" target="7725909b_620f_4eeb_9f6a_53e930650d6c" edge="1">
            <mxGeometry relative="1" as="geometry" />
          </mxCell>
        </UserObject>
        <UserObject id="6">
          <mxCell style="strokeColor=#000000;noEdgeStyle=1;" parent="9d8050f6_c1ce_43eb_8672_c7f0b13ef910" source="111acbdb_446c_4ff5_aaa6_0672e96f4eb4" target="f36c09c8_a943_4732_96b3_d8d8e338f65e" edge="1">
            <mxGeometry relative="1" as="geometry" />
          </mxCell>
        </UserObject>
        <UserObject id="7">
          <mxCell style="strokeColor=#000000;noEdgeStyle=1;" parent="9d8050f6_c1ce_43eb_8672_c7f0b13ef910" source="ffc6c272_14ea_4dc4_be63_74a2a4b4536e" target="f087db8d_4367_44e3_824a_7cbe98cf304c" edge="1">
            <mxGeometry relative="1" as="geometry" />
          </mxCell>
        </UserObject>
        <UserObject id="8">
          <mxCell style="strokeColor=#000000;noEdgeStyle=1;" parent="9d8050f6_c1ce_43eb_8672_c7f0b13ef910" source="ffc6c272_14ea_4dc4_be63_74a2a4b4536e" target="1e468805_a5d4_4c59_a887_f6dc3acb2388" edge="1">
            <mxGeometry relative="1" as="geometry" />
          </mxCell>
        </UserObject>
        <UserObject id="9">
          <mxCell style="strokeColor=#000000;noEdgeStyle=1;" parent="9d8050f6_c1ce_43eb_8672_c7f0b13ef910" source="ffc6c272_14ea_4dc4_be63_74a2a4b4536e" target="111acbdb_446c_4ff5_aaa6_0672e96f4eb4" edge="1">
            <mxGeometry relative="1" as="geometry" />
          </mxCell>
        </UserObject>
        <UserObject id="10">
          <mxCell style="strokeColor=#000000;noEdgeStyle=1;" parent="9d8050f6_c1ce_43eb_8672_c7f0b13ef910" source="ffc6c272_14ea_4dc4_be63_74a2a4b4536e" target="b9f73aee_bc0a_458a_aef0_e7a94b9842c9" edge="1">
            <mxGeometry relative="1" as="geometry" />
          </mxCell>
        </UserObject>
        <UserObject id="11">
          <mxCell style="strokeColor=#000000;noEdgeStyle=1;" parent="9d8050f6_c1ce_43eb_8672_c7f0b13ef910" source="6bb9761f_8ef6_4c15_8eab_5344bb2e0557" target="ffc6c272_14ea_4dc4_be63_74a2a4b4536e" edge="1">
            <mxGeometry relative="1" as="geometry" />
          </mxCell>
        </UserObject>
        <UserObject id="2">
          <mxCell style="strokeColor=#000000" parent="8c91b940_aed6_4b3e_a5d9_d2454f56bb91" source="f36c09c8_a943_4732_96b3_d8d8e338f65e" target="00e759f1_9770_4c8a_88c8_f006d0abfb57" edge="1">
            <mxGeometry relative="1" as="geometry" />
          </mxCell>
        </UserObject>
        <UserObject id="3">
          <mxCell style="strokeColor=#000000" parent="8c91b940_aed6_4b3e_a5d9_d2454f56bb91" source="f36c09c8_a943_4732_96b3_d8d8e338f65e" target="dd9ac9db_973d_4c50_bf81_9d2d35f4179d" edge="1">
            <mxGeometry relative="1" as="geometry" />
          </mxCell>
        </UserObject>
        <UserObject id="4">
          <mxCell style="strokeColor=#000000" parent="8c91b940_aed6_4b3e_a5d9_d2454f56bb91" source="f36c09c8_a943_4732_96b3_d8d8e338f65e" target="6b2263d1_219d_4e64_9ecf_809a5c0b2649" edge="1">
            <mxGeometry relative="1" as="geometry" />
          </mxCell>
        </UserObject>
      </root>
    </mxGraphModel>
  </diagram>
</mxfile>
